<svg xmlns="http://www.w3.org/2000/svg" xmlns:xlink="http://www.w3.org/1999/xlink" version="1.1" x="0px" y="0px" viewBox="0 0 65 81.25" enable-background="new 0 0 65 65" xml:space="preserve"><g><path d="M35.1,16c0.9,0,1.9,0.2,2.8,0.7l0.7-1.3c-1.1-0.6-2.3-0.9-3.5-0.9c-3.2,0-6,2.1-6.9,5.1h-2.4v1.5h2.1c0,0.2,0,1,0,1.2h-2.1   v1.5h2.4c0.9,2.9,3.6,5.1,6.9,5.1c1.2,0,2.4-0.3,3.5-0.9l-0.7-1.3c-0.9,0.5-1.8,0.7-2.8,0.7c-2.4,0-4.5-1.5-5.3-3.6h5.9v-1.5h-6.2   c0-0.2,0-1,0-1.2h6.2v-1.5h-5.9C30.6,17.5,32.7,16,35.1,16z"/><path d="M47.9,17.2C47.9,17.2,47.9,17.2,47.9,17.2l1,1.1c0,0,0.9-0.8,2.4-0.4c0.2,0.1,1.6,0.6,2.8,0l-0.7-1.3   c-0.5,0.2-1.3,0-1.6-0.1c-0.6-0.1-1-0.2-1.5-0.1c0.2-0.6,0.3-1.2,0.4-1.8h2.3v-1.5h-2.6c0-0.1-0.1-0.2-0.1-0.4   c-0.2-0.5-0.4-1-0.4-1.5c0-0.9,0.7-1.6,1.6-1.6c0.9,0,1.6,0.7,1.6,1.6h1.5c0-1.7-1.4-3.1-3.1-3.1c-1.7,0-3.1,1.4-3.1,3.1   c0,0.6,0.2,1.3,0.4,1.8h-1.1v1.5h1.4C49.1,15.6,48.7,16.5,47.9,17.2z"/><path d="M34,8.2c-1.1,0-2.2,0.1-3.3,0.4c-3.5,0.9-6.5,3-8.3,6.1c-1.9,3.1-2.4,6.7-1.5,10.2c1.5,6,6.9,10.3,13.1,10.3   c1.1,0,2.2-0.1,3.3-0.4c3.5-0.9,6.5-3,8.3-6.1c1.2-2,1.9-4.3,1.9-6.7c1,0.4,2.1,0.6,3.2,0.6c0.7,0,1.5-0.1,2.2-0.3   c2.4-0.6,4.4-2.1,5.7-4.2c1.3-2.1,1.6-4.6,1.1-7c-0.6-2.4-2.1-4.4-4.2-5.7c-2.1-1.3-4.6-1.6-7-1.1c-3.2,0.8-5.7,3.2-6.6,6.3   C39.6,9.1,36.9,8.2,34,8.2z M44.3,27.9c-1.7,2.8-4.3,4.7-7.4,5.5c-1,0.2-1.9,0.4-2.9,0.4c-5.5,0-10.3-3.8-11.7-9.1   c-0.8-3.1-0.3-6.4,1.4-9.1c1.7-2.8,4.3-4.7,7.4-5.5c1-0.2,1.9-0.4,2.9-0.4c5.5,0,10.3,3.8,11.7,9.1C46.4,21.9,46,25.2,44.3,27.9z    M48.8,5.9c4.1-1,8.3,1.5,9.3,5.6c0.5,2,0.2,4.1-0.9,5.8c-1.1,1.8-2.8,3-4.8,3.5c-1.7,0.4-3.5,0.2-5.1-0.5   c-0.1-0.6-0.2-1.3-0.3-1.9c-0.7-2.7-2.1-5-4-6.7C43.8,8.9,45.9,6.6,48.8,5.9z"/><path d="M51,26.8c0.1,0,0.1,0,0.2,0l-0.1-1.5c-0.1,0-0.3,0-0.4,0l-0.8,0l-0.1,0.6c-0.1,0.2-0.1,0.5-0.2,0.7l1.4,0.4   C50.9,26.9,50.9,26.8,51,26.8z"/><path d="M35.1,39.4c0.5,0,1-0.1,1.5-0.2l-0.2-1.5c-0.5,0.1-0.9,0.1-1.4,0.1L35.1,39.4z"/><path d="M33,39.4l0.1-1.5c-0.5,0-0.9-0.1-1.4-0.1l-0.2,1.5C32,39.3,32.5,39.4,33,39.4z"/><path d="M19,15.6L17.6,15c-0.2,0.5-0.4,1-0.5,1.4l1.4,0.4C18.6,16.5,18.8,16,19,15.6z"/><path d="M26.2,37.6l0.7-1.3c-0.4-0.2-0.8-0.4-1.2-0.7l-0.8,1.3C25.2,37.1,25.7,37.4,26.2,37.6z"/><path d="M23.1,35.7l0.9-1.2c-0.4-0.3-0.7-0.6-1.1-0.9l-1,1.1C22.3,35.1,22.7,35.4,23.1,35.7z"/><path d="M29.5,38.8l0.4-1.4c-0.5-0.1-0.9-0.3-1.3-0.4L28,38.4C28.5,38.6,29,38.7,29.5,38.8z"/><path d="M41.9,37.5c0.5-0.2,0.9-0.5,1.3-0.7l-0.8-1.3c-0.4,0.2-0.8,0.5-1.2,0.7L41.9,37.5z"/><path d="M17.9,23.4c0-0.5-0.1-0.9-0.1-1.4l-1.5,0c0,0.5,0,1,0.1,1.5L17.9,23.4z"/><path d="M50.2,28.9l-1.4-0.6c-0.2,0.4-0.4,0.8-0.6,1.3l1.3,0.7C49.8,29.8,50,29.3,50.2,28.9z"/><path d="M44,34.5l0.9,1.2c0.4-0.3,0.8-0.6,1.2-1l-1-1.1C44.7,33.9,44.4,34.2,44,34.5z"/><path d="M18,18.7l-1.5-0.3c-0.1,0.5-0.2,1-0.2,1.5l1.5,0.1C17.9,19.7,18,19.2,18,18.7z"/><path d="M46.4,32.2l1.1,1c0.3-0.4,0.6-0.8,0.9-1.2l-1.2-0.9C46.9,31.5,46.7,31.9,46.4,32.2z"/><path d="M38.6,38.8c0.5-0.1,1-0.3,1.5-0.5l-0.5-1.4c-0.4,0.2-0.9,0.3-1.3,0.4L38.6,38.8z"/><path d="M25.1,8.1l-0.8-1.2c-0.4,0.3-0.8,0.6-1.2,0.9L24,9C24.3,8.7,24.7,8.4,25.1,8.1z"/><path d="M19.8,29.6c-0.2-0.4-0.4-0.8-0.6-1.3l-1.4,0.6c0.2,0.5,0.4,0.9,0.7,1.4L19.8,29.6z"/><path d="M30.1,5.9c0.3-0.1,0.7-0.2,1-0.2l-0.3-1.5c-0.4,0.1-0.8,0.1-1.1,0.2l-0.4,0.1L29.8,6L30.1,5.9z"/><path d="M28,6.6l-0.6-1.4C27,5.4,26.5,5.6,26,5.9l0.7,1.3C27.1,7,27.5,6.8,28,6.6z"/><path d="M22.6,10.2l-1.1-1.1c-0.4,0.4-0.7,0.7-1,1.1l1.1,1C21.9,10.9,22.2,10.5,22.6,10.2z"/><path d="M20.5,12.7l-1.2-0.8c-0.3,0.4-0.5,0.9-0.8,1.3l1.3,0.7C20,13.5,20.2,13.1,20.5,12.7z"/><path d="M34,5.5l0.4,0l0-1.5L34,4c-0.4,0-0.7,0-1.1,0L33,5.5C33.3,5.5,33.7,5.5,34,5.5z"/><path d="M21.7,32.3c-0.3-0.4-0.6-0.7-0.9-1.1L19.6,32c0.3,0.4,0.6,0.8,0.9,1.2L21.7,32.3z"/><path d="M18.2,25.2l-1.5,0.3l0.1,0.4c0.1,0.4,0.2,0.7,0.3,1.1l1.4-0.4c-0.1-0.3-0.2-0.7-0.3-1L18.2,25.2z"/><path d="M37.9,4.4c-0.5-0.1-1-0.2-1.5-0.3l-0.2,1.5c0.5,0.1,0.9,0.1,1.4,0.3L37.9,4.4z"/><path d="M40.7,6.9L41,6.4c0,0,0.2-0.3,0.3-0.4l0.1-0.2l-1.2-0.9l-0.1,0.2C40.1,5.1,40,5,40,5l-0.5,1.4c0.2,0.1,0.4,0.2,0.7,0.3   L40.7,6.9z"/><path d="M56.9,1.5c-0.5-0.2-0.9-0.5-1.4-0.6l-0.5,1.4c0.4,0.2,0.9,0.4,1.3,0.6L56.9,1.5z"/><path d="M59.9,3.6c-0.4-0.4-0.8-0.7-1.2-1l-0.9,1.2c0.4,0.3,0.7,0.6,1.1,0.9L59.9,3.6z"/><path d="M62.2,6.5c-0.3-0.4-0.6-0.9-0.9-1.3l-1.2,0.9c0.3,0.4,0.5,0.8,0.8,1.2L62.2,6.5z"/><path d="M53.4,0.3c-0.5-0.1-1-0.2-1.6-0.2l-0.1,1.5c0.5,0,0.9,0.1,1.4,0.2L53.4,0.3z"/><path d="M58.7,22.1l1,1.1c0.4-0.4,0.8-0.7,1.1-1.1l-1.1-1C59.4,21.5,59.1,21.8,58.7,22.1z"/><path d="M62.2,10.2l1.4-0.4c-0.1-0.5-0.3-1-0.5-1.5l-1.4,0.6C61.9,9.3,62,9.8,62.2,10.2z"/><path d="M62.8,19l-1.3-0.6c-0.2,0.4-0.4,0.8-0.7,1.2l1.3,0.8C62.3,20,62.6,19.5,62.8,19z"/><path d="M62.6,13.4l1.5-0.1c0-0.5,0-1-0.1-1.5L62.5,12C62.6,12.5,62.6,12.9,62.6,13.4z"/><path d="M49.9,1.5L49.8,0c-0.5,0-1,0.1-1.6,0.2l0.3,1.5C49,1.6,49.4,1.5,49.9,1.5z"/><path d="M53,25.1l0.3,1.5c0.2,0,0.4-0.1,0.6-0.1c0.3-0.1,0.6-0.2,0.9-0.3l-0.5-1.4c-0.3,0.1-0.5,0.2-0.8,0.2   C53.4,25,53.2,25,53,25.1z"/><path d="M43.8,3.6L43,2.4c-0.4,0.3-0.8,0.6-1.2,1l1,1.1C43.1,4.2,43.4,3.9,43.8,3.6z"/><path d="M56.1,24l0.7,1.3c0.5-0.2,0.9-0.5,1.4-0.8l-0.8-1.2C56.9,23.6,56.5,23.8,56.1,24z"/><path d="M46.7,2.1l-0.5-1.4c-0.5,0.2-1,0.4-1.5,0.6l0.7,1.3C45.8,2.5,46.3,2.3,46.7,2.1z"/><path d="M62.1,16.7l1.4,0.4c0.1-0.5,0.3-1,0.3-1.5l-1.5-0.2C62.4,15.8,62.2,16.2,62.1,16.7z"/><path d="M57.9,45.9l-13.1,5.8c0-0.2,0.1-0.4,0.1-0.6c0-1.8-1.5-3.3-3.3-3.4v0h0c0,0,0,0-0.1,0v0h-9.1l-6.9-3.2c-1.4-0.7-3-1-4.6-1   h-5.3v-2.4H0.9v1.5h13.2v18.7H3.6v1.5h12.1v-2.4h4l12.6,4.2c0.8,0.3,1.7,0.4,2.6,0.4c1.3,0,2.6-0.3,3.8-0.9l22-11.5   c1.8-0.8,2.7-2.9,1.9-4.7C61.9,46,59.8,45.2,57.9,45.9z M60.1,51.2L38,62.8c-1.6,0.8-3.5,1-5.3,0.4L20,58.9l-4.3,0V45h5.3   c1.4,0,2.7,0.3,4,0.9l7.2,3.4h9.4c1,0,1.8,0.9,1.8,1.9c0,1-0.8,1.9-1.9,1.9h-11l-0.1,0c-1,0.2-2.9,1.1-2.9,3.1h1.5   c0-1.1,1.4-1.5,1.7-1.6h11v0c0.6,0,1.1-0.2,1.5-0.4l0,0l15.4-6.8c0.5-0.2,1.1-0.2,1.6,0c0.5,0.2,0.9,0.6,1.1,1.1   C61.7,49.5,61.2,50.7,60.1,51.2z"/><rect x="7.1" y="57.2" width="1.5" height="1.5"/><rect x="10.2" y="57.2" width="1.5" height="1.5"/></g><text x="0" y="80" fill="#000000" font-size="5px" font-weight="bold" font-family="'Helvetica Neue', Helvetica, Arial-Unicode, Arial, Sans-serif">Created by Creative Stall</text><text x="0" y="85" fill="#000000" font-size="5px" font-weight="bold" font-family="'Helvetica Neue', Helvetica, Arial-Unicode, Arial, Sans-serif">from the Noun Project</text></svg>